# AST/ASF file generated using VICON BodyLanguage
# -----------------------------------------------
:version 1.10
:name VICON
:units
  mass 1.0
  length 0.45
  angle deg
:documentation
   .ast/.asf automatically generated from VICON data using
   VICON BodyBuilder and BodyLanguage model FoxedUp or BRILLIANT.MOD
:root
   order TX TY TZ RX RY RZ
   axis XYZ
   position 0 0 0  
   orientation 0 0 0 
:bonedata
  begin
     id 1 
     name lhipjoint
     direction 0.603808 -0.713975 0.35448 
     length 2.2025 
     axis 0 0 0  XYZ
  end
  begin
     id 2 
     name lfemur
     direction 0.34202 -0.939693 0  
     length 6.55877  
     axis 0 0 20  XYZ
    dof rx ry rz
    limits (-160.0 20.0)
           (-70.0 70.0)
           (-60.0 70.0)
  end
  begin
     id 3 
     name ltibia
     direction 0.34202 -0.939693 0   
     length 6.80302   
     axis 0 0 20   XYZ
    dof rx
    limits (-10.0 170.0)
  end
  begin
     id 4 
     name lfoot
     direction 0.091848 -0.25235 0.963267   
     length 2.03446   
     axis -90 7.62852e-016 20   XYZ
    dof rx rz
    limits (-45.0 90.0)
           (-70.0 20.0)
  end
  begin
     id 5 
     name ltoes
     direction 1.53608e-011 -4.21925e-011 1   
     length 1.02033   
     axis -90 7.62852e-016 20   XYZ
    dof rx
    limits (-90.0 20.0)
  end
  begin
     id 6 
     name rhipjoint
     direction -0.587285 -0.724947 0.359928   
     length 2.16916  
     axis 0 0 0  XYZ 
  end
  begin
     id 7 
     name rfemur
     direction -0.34202 -0.939693 0   
     length 6.43173   
     axis 0 0 -20   XYZ
    dof rx ry rz
    limits (-160.0 20.0)
           (-70.0 70.0)
           (-70.0 60.0)
  end
  begin
     id 8 
     name rtibia
     direction -0.34202 -0.939693 0   
     length 6.70662   
     axis 0 0 -20   XYZ
    dof rx
    limits (-10.0 170.0)
 end
 begin
     id 9 
     name rfoot
     direction -0.11854 -0.325686 0.938018   
     length 2.0773  
     axis -90 -7.62852e-016 -20   XYZ
    dof rx rz
    limits (-45.0 90.0)
           (-20.0 70.0)
  end
  begin
     id 10 
     name rtoes
     direction -1.53547e-011 -4.21838e-011 1   
     length 1.03267   
     axis -90 -7.62852e-016 -20   XYZ
    dof rx
    limits (-90.0 20.0)
  end
  begin
     id 11 
     name lowerback
     direction -0.0286554 0.999539 0.0100613   
     length 2.08751   
     axis 0 0 0   XYZ
    dof rx ry rz
    limits (-20.0 45.0)
           (-30.0 30.0)
           (-30.0 30.0)
  end
  begin
     id 12 
     name upperback
     direction 0.0227093 0.999705 -0.00860929   
     length 2.08517   
     axis 0 0 0   XYZ
    dof rx ry rz
    limits (-20.0 45.0)
           (-30.0 30.0)
           (-30.0 30.0)
  end
  begin
     id 13 
     name thorax
     direction 0.0351627 0.999285 -0.013892   
     length 2.08412   
     axis 0 0 0   XYZ
    dof rx ry rz
    limits (-20.0 45.0)
           (-30.0 30.0)
           (-30.0 30.0)
  end
  begin
     id 14 
     name lowerneck
     direction -0.0696283 0.997344 0.0213922   
     length 1.44164   
     axis 0 0 0   XYZ
    dof rx ry rz
    limits (-20.0 45.0)
           (-30.0 30.0)
           (-30.0 30.0)
  end
  begin
     id 15 
     name upperneck
     direction 0.0531 0.990412 -0.127531   
     length 1.45022   
     axis 0 0 0   XYZ
    dof rx ry rz
    limits (-20.0 45.0)
           (-30.0 30.0)
           (-30.0 30.0)
  end
  begin
     id 16
     name head
     direction 0.0188154 0.998548 -0.0504727  
     length 1.45845  
     axis 0 0 0   XYZ
    dof rx ry rz
    limits (-20.0 45.0)
           (-30.0 30.0)
           (-30.0 30.0)
  end
  begin
     id 17 
     name lclavicle
     direction 0.961559 0.260051 0.088188  
     length 2.86057  
     axis 0 0 0   XYZ
    dof ry rz
    limits (-20.0 10.0)
           (0.0 20.0)
  end
  begin
     id 18 
     name lhumerus
     direction 1 -4.48959e-011 2.88185e-027   
     length 4.36901   
     axis 180 -30 -90   XYZ
    dof rx ry rz
    limits (-60.0 90.0)
           (-90.0 90.0)
           (-90.0 90.0)
  end
  begin
     id 19
     name lradius
     direction 1 -4.48965e-011 -3.92618e-028   
     length 3.21737   
     axis 180 -30 -90   XYZ
    dof rx
    limits (-10.0 170.0)
  end
  begin
     id 20
     name lwrist
     direction 1 -4.49037e-011 2.57246e-027   
     length 1.60869   
     axis -1.61769e-015 90 90   XYZ
    dof ry
    limits (-180.0 0.0)
 end
  begin
     id 21 
     name lhand
     direction 1 -4.48807e-011 5.12958e-027   
     length 0.564313   
     axis -3.27988e-015 90 90   XYZ
    dof rx rz
    limits (-90.0 90.0)
           (-45.0 45.0)
  end
  begin
     id 22 
     name lfingers
     direction 1 -4.48879e-011 1.02687e-026   
     length 0.454963   
     axis -6.5598e-015 90 90   XYZ
    dof rx
    limits (0.0 90.0)
  end
  begin
     id 23
     name lthumb
     direction 0.707107 -6.3475e-011 0.707107   
     length 0.653239   
     axis -90 45 2.19363e-014   XYZ
    dof rx rz
    limits (-45.0 45.0)
           (-45.0 45.0)
  end
  begin
     id 24 
     name rclavicle
     direction -0.954677 0.253915 0.155304   
     length 3.11497  
     axis 0 0 0   XYZ 
    dof ry rz
    limits (-10.0 20.0)
           (-20.0 0.0)
  end
  begin
     id 25 
     name rhumerus
     direction -1 -4.48958e-011 -8.20169e-028  
     length 4.34118   
     axis 180 30 90   XYZ
    dof rx ry rz
    limits (-90.0 60.0)
           (-90.0 90.0)
           (-90.0 90.0)
  end
  begin
     id 26 
     name rradius
     direction -1 -4.48978e-011 1.5676e-027   
     length 3.09531   
     axis 180 30 90   XYZ
    dof rx
    limits (-10.0 170.0)
  end
  begin
     id 27 
     name rwrist
     direction -1 -4.49001e-011 2.57123e-027   
     length 1.54765   
     axis -1.61769e-015 -90 -90   XYZ
    dof ry
    limits (-180.0 0.0)
  end
  begin
     id 28
     name rhand
     direction -1 -4.48847e-011 5.13225e-027   
     length 0.597446   
     axis -3.27988e-015 -90 -90   XYZ
    dof rx rz
    limits (-90.0 90.0)
           (-45.0 45.0)
  end
  begin
     id 29
     name rfingers
     direction -1 -4.49094e-011 1.02974e-026   
     length 0.481677   
     axis -6.5598e-015 -90 -90   XYZ
    dof rx
    limits (0.0 90.0)
  end
  begin
     id 30
     name rthumb
     direction -0.707107 -6.34859e-011 0.707107   
     length 0.691594   
     axis -90 -45 -2.19363e-014   XYZ
    dof rx rz
    limits (-45.0 45.0)
           (-45.0 45.0)
  end
:hierarchy
  begin
    root lhipjoint rhipjoint lowerback
    lhipjoint lfemur
    lfemur ltibia
    ltibia lfoot
    lfoot ltoes
    rhipjoint rfemur
    rfemur rtibia
    rtibia rfoot
    rfoot rtoes
    lowerback upperback
    upperback thorax
    thorax lowerneck lclavicle rclavicle
    lowerneck upperneck
    upperneck head
    lclavicle lhumerus
    lhumerus lradius
    lradius lwrist
    lwrist lhand lthumb
    lhand lfingers
    rclavicle rhumerus
    rhumerus rradius
    rradius rwrist
    rwrist rhand rthumb
    rhand rfingers
  end

#!OML:ASF I:\Acrobat_Osman\acrobat\cartwheel_test 2\Patient 1\Session 1\acrobat.ASF
:FULLY-SPECIFIED
:DEGREES
193
root 10.1863 15.4881 -10.0494 -279.286 55.4631 -68.1311
lowerback 11.6888 0.629447 -11.6278
upperback -5.10256 -1.7531 -5.59274
thorax -12.1863 -0.173976 0.71876
lowerneck -14.8449 -3.31211 -8.08959
upperneck -11.2356 -2.68149 11.1289
head -0.665944 -0.953619 4.63766
rclavicle -1.35174e-013 -2.06736e-014
rhumerus -9.03748 -26.8003 -18.9415
rradius 80.0541
rwrist -6.91967
rhand -45.9833 51.9385
rfingers 7.12502
rthumb -18.7296 22.8202
lclavicle -1.35174e-013 -2.06736e-014
lhumerus 96.5166 29.9973 50.6849
lradius 31.1481
lwrist 39.1333
lhand -40.1657 -109.102
lfingers 7.12502
lthumb -13.1275 221.331
rfemur 19.8929 7.41552 10.689
rtibia 50.4002
rfoot 27.4092 -12.5002
rtoes -0.562382
lfemur -444.691 45.2901 -353.888
ltibia 77.6403
lfoot -50.7405 13.5389
ltoes -23.3923
194
root 9.98474 15.3598 -10.2681 -280.875 53.3942 -67.3455
lowerback 13.0525 0.805703 -12.6088
upperback -4.4548 -1.85341 -5.6945
thorax -12.2482 -0.164922 1.17976
lowerneck -14.7303 -3.25703 -8.71653
upperneck -11.5416 -2.484 11.439
head -0.774229 -0.831466 4.85413
rclavicle -1.49486e-013 -7.95139e-015
rhumerus -11.6695 -27.5252 -18.65
rradius 79.2553
rwrist -6.98027
rhand -46.1198 52.4646
rfingers 7.12502
rthumb -18.8609 23.359
lclavicle -1.49486e-013 -7.95139e-015
lhumerus 94.133 31.8584 49.2684
lradius 32.6906
lwrist 40.8906
lhand -40.5048 -110.749
lfingers 7.12502
lthumb -13.4544 219.705
rfemur 19.5835 9.71605 11.8906
rtibia 49.7469
rfoot 25.9678 -13.2157
rtoes -1.46698
lfemur -449.188 44.874 -354.65
ltibia 78.7248
lfoot -53.3243 11.248
ltoes -23.3911
195
root 9.76502 15.2227 -10.4909 -282.302 51.6252 -66.2429
lowerback 14.325 1.10099 -13.1281
upperback -3.78991 -1.72929 -5.89369
thorax -12.2599 -0.0987877 1.22792
lowerneck -14.5267 -3.33996 -8.7232
upperneck -11.8466 -2.59242 11.647
head -0.87678 -0.89934 4.92106
rclavicle -1.49486e-013 -2.22639e-014
rhumerus -15.5196 -28.3966 -17.8999
rradius 77.9294
rwrist -7.77039
rhand -46.6794 50.9925
rfingers 7.12502
rthumb -19.3991 21.9401
lclavicle -1.49486e-013 -2.22639e-014
lhumerus 92.6563 32.792 48.7855
lradius 33.7873
lwrist 42.21
lhand -41.0189 -111.618
lfingers 7.12502
lthumb -13.9498 218.87
rfemur 18.8342 10.9992 13.4059
rtibia 48.5772
rfoot 25.6641 -12.2205
rtoes -4.15859
lfemur -453.004 44.0608 -355.004
ltibia 78.8875
lfoot -54.7254 9.07779
ltoes -23.8989
196
root 9.52717 15.0856 -10.7227 -283.908 50.0819 -65.1378
lowerback 15.5594 1.555 -13.1473
upperback -3.05963 -1.32582 -6.28457
thorax -12.2084 0.0407332 0.715549
lowerneck -14.9131 -3.65141 -7.7883
upperneck -11.8677 -3.14964 11.6766
head -0.784473 -1.2199 4.74489
rclavicle -9.54166e-014 -1.27222e-013
rhumerus -20.7634 -29.3087 -16.7936
rradius 76.0687
rwrist -8.70688
rhand -46.7622 49.5111
rfingers 7.12502
rthumb -19.4786 20.4668
lclavicle -9.54166e-014 -1.27222e-013
lhumerus 92.1128 32.8915 49.1081
lradius 34.3898
lwrist 42.7185
lhand -41.3158 -111.903
lfingers 7.12502
lthumb -14.236 218.605
rfemur 18.475 11.9389 15.0886
rtibia 46.5653
rfoot 20.3292 -16.5827
rtoes -4.83234
lfemur -456.063 43.1681 -355.071
ltibia 78.1957
lfoot -53.8606 7.13034
ltoes -20.0175
197
root 9.27114 14.9401 -10.9465 -285.786 48.7276 -64.1659
lowerback 16.7684 2.10469 -12.8251
upperback -2.35671 -0.749419 -6.76405
thorax -12.1803 0.230732 -0.144049
lowerneck -15.9739 -4.02058 -5.58081
upperneck -11.3825 -4.03122 11.1751
head -0.469219 -1.73496 4.15916
rclavicle -2.8625e-014 2.8625e-014
rhumerus -26.9768 -29.8889 -15.4646
rradius 73.9058
rwrist -9.96785
rhand -44.6481 43.9099
rfingers 7.12502
rthumb -17.445 14.6727
lclavicle -2.8625e-014 2.8625e-014
lhumerus 92.1672 32.2541 49.9513
lradius 34.4503
lwrist 42.5159
lhand -41.4822 -111.497
lfingers 7.12502
lthumb -14.3962 219.022
rfemur 17.9039 11.7392 16.9242
rtibia 43.4956
rfoot 17.5639 -20.431
rtoes -2.00953
lfemur -457.881 42.1576 -354.479
ltibia 76.7742
lfoot -51.4988 5.624
ltoes -15.2913
198
root 8.99956 14.7871 -11.1662 -287.678 47.4991 -63.0483
lowerback 17.9608 2.59719 -12.3209
upperback -1.73748 -0.215798 -7.22835
thorax -12.2109 0.395001 -1.09832
lowerneck -17.3863 -4.39335 -2.78973
upperneck -10.7521 -5.10206 10.6658
head -0.130656 -2.34867 3.74826
rclavicle 1.43125e-014 4.13472e-014
rhumerus -33.4506 -30.588 -14.6815
rradius 71.7673
rwrist -11.2024
rhand -45.1983 44.3185
rfingers 7.12502
rthumb -17.9745 15.1291
lclavicle 1.43125e-014 4.13472e-014
lhumerus 92.4467 31.2492 51.1172
lradius 33.9415
lwrist 41.9513
lhand -41.4907 -110.895
lfingers 7.12502
lthumb -14.4045 219.625
rfemur 16.8771 9.30913 18.6163
rtibia 39.2837
rfoot 16.6271 -18.6169
rtoes -14.8789
lfemur -459.03 41.0657 -353.944
ltibia 74.8244
lfoot -47.8244 4.43447
ltoes -9.07951
199
root 8.7045 14.6382 -11.4025 -289.578 46.2355 -61.6715
lowerback 19.1609 2.89573 -11.6915
upperback -1.19011 0.0869728 -7.74153
thorax -12.2893 0.450958 -2.13387
lowerneck -18.5894 -4.51958 0.0767991
upperneck -10.2781 -5.88467 10.3995
head 0.155871 -2.82192 3.04341
rclavicle -1.1291e-013 8.90555e-014
rhumerus -39.7386 -31.4878 -14.653
rradius 69.8035
rwrist -12.2178
rhand -43.9689 39.854
rfingers 7.12502
rthumb -16.7913 10.5601
lclavicle -1.1291e-013 8.90555e-014
lhumerus 92.9308 30.0862 52.6125
lradius 32.6257
lwrist 40.9951
lhand -41.5394 -110.456
lfingers 7.12502
lthumb -14.4514 220.067
rfemur 16.4829 7.92045 20.3406
rtibia 34.1956
rfoot 10.1416 -21.7956
rtoes -5.55962
lfemur -459.604 39.7595 -353.52
ltibia 72.6095
lfoot -43.4557 3.95798
ltoes 0.403938
200
root 8.40205 14.4787 -11.6278 -291.781 44.9498 -60.2649
lowerback 20.4563 3.00147 -10.7925
upperback -0.619028 0.205418 -8.25557
thorax -12.3651 0.409556 -3.28225
lowerneck -20.3545 -4.76311 3.25855
upperneck -9.55237 -7.04353 10.4846
head 0.600803 -3.45766 2.38658
rclavicle 4.77083e-015 5.56597e-014
rhumerus -45.522 -32.595 -15.2071
rradius 68.074
rwrist -12.7235
rhand -45.4794 39.0143
rfingers 7.12502
rthumb -18.2449 9.84997
lclavicle 4.77083e-015 5.56597e-014
lhumerus 93.8929 28.964 54.7906
lradius 30.4109
lwrist 39.3214
lhand -41.6907 -109.133
lfingers 7.12502
lthumb -14.5971 221.401
rfemur 15.9686 4.7091 21.9882
rtibia 28.2975
rfoot 6.04526 -21.771
rtoes -12.7623
lfemur -459.411 38.4109 -353.205
ltibia 70.4205
lfoot -39.6247 3.9195
ltoes 10.0497
201
root 8.09978 14.3269 -11.8194 -294.252 43.5648 -58.8872
lowerback 21.8181 3.12338 -10.0501
upperback 0.0917922 0.339073 -8.69739
thorax -12.3032 0.38707 -4.27385
lowerneck -22.4553 -4.55236 8.04731
upperneck -9.13437 -8.1201 9.24973
head 0.805373 -4.12547 1.05811
rclavicle -8.42847e-014 -1.1609e-013
rhumerus -50.8929 -34.6067 -15.5973
rradius 66.1684
rwrist -12.3834
rhand -44.8883 38.4922
rfingers 7.12502
rthumb -17.6762 9.27568
lclavicle -8.42847e-014 -1.1609e-013
lhumerus 95.8463 27.8316 58.3276
lradius 27.2198
lwrist 36.3566
lhand -41.7769 -106.45
lfingers 7.12502
lthumb -14.6802 224.089
rfemur 15.443 1.2684 23.8062
rtibia 22.0918
rfoot 4.34646 -21.6803
rtoes 5.91617
lfemur -458.475 37.163 -353.099
ltibia 68.4453
lfoot -37.3927 4.27759
ltoes 15.897
202
root 7.77466 14.1837 -12.0371 -296.831 41.9248 -57.4242
lowerback 23.5303 2.8841 -8.91838
upperback 0.369704 -0.00732546 -9.34897
thorax -12.9427 0.129871 -5.65158
lowerneck -23.109 -4.83218 10.7118
upperneck -8.77588 -9.32798 10.4076
head 0.959484 -4.76692 0.899279
rclavicle -8.90555e-014 2.22639e-014
rhumerus -56.0497 -36.4858 -16.0388
rradius 64.5513
rwrist -11.439
rhand -44.4436 37.2643
rfingers 7.12502
rthumb -17.2481 8.00972
lclavicle -8.90555e-014 2.22639e-014
lhumerus 97.1102 26.9086 61.4156
lradius 23.3741
lwrist 32.6425
lhand -41.692 -103.55
lfingers 7.12502
lthumb -14.5984 226.984
rfemur 14.5211 -4.11799 25.4024
rtibia 16.3953
rfoot 5.0724 -20.8625
rtoes -4.60198
lfemur -457.419 35.9916 -353.363
ltibia 67.1389
lfoot -37.2439 6.91875
ltoes 13.9529
